<svg width="500" height="568" viewBox="0 0 500 568" fill="none" xmlns="http://www.w3.org/2000/svg">
<path fill-rule="evenodd" clip-rule="evenodd" d="M237.585 0V38.7619V56.2047H255.028H306.223H357.418H374.861V38.7619V0H339.975V21.319H323.666V0H288.78V21.319H272.471V0H237.585ZM0 151.276C0 105.748 36.9643 68.8394 82.5621 68.8394H330.334C375.931 68.8394 412.896 105.748 412.896 151.277V238.757C431.698 224.555 446.238 205.015 454.246 182.382L500 198.522C484.937 241.095 453.342 275.895 412.896 295.203V374.021V408.351H364.37V374.021V309.937C356.419 311.092 348.29 311.699 340.022 311.716V408.346H330.333H291.496H24.2629H0V384.12V151.276ZM291.496 304.808C221.059 284.07 169.651 219.011 169.651 141.963C169.651 133.591 170.259 125.353 171.436 117.292H82.5621C63.7644 117.292 48.5258 132.507 48.5258 151.276V359.894H145.748V311.357H194.274V359.894H291.496V304.808ZM220.686 117.292C219.042 125.245 218.176 133.494 218.176 141.963C218.176 208.956 272.567 263.264 339.661 263.264C348.126 263.264 356.391 262.399 364.37 260.753V151.277C364.37 132.507 349.131 117.292 330.334 117.292H220.686ZM329.634 182.71C329.634 194.959 319.689 204.889 307.422 204.889C295.154 204.889 285.21 194.959 285.21 182.71C285.21 170.462 295.154 160.532 307.422 160.532C319.689 160.532 329.634 170.462 329.634 182.71Z" fill="white"/>
<path d="M345.53 502.52V429.561H356.915L361.779 444.132V502.52H345.53ZM395.934 502.52L352.878 447.439L356.915 429.561L399.97 484.642L395.934 502.52ZM395.934 502.52L391.587 487.949V429.561H407.836V502.52H395.934Z" fill="white"/>
<path d="M297.023 503.76C291.504 503.76 286.398 502.796 281.706 500.867C277.083 498.938 273.012 496.251 269.493 492.806C265.974 489.361 263.248 485.366 261.316 480.819C259.384 476.203 258.418 471.242 258.418 465.937C258.418 460.564 259.384 455.603 261.316 451.056C263.248 446.509 265.939 442.548 269.389 439.172C272.839 435.727 276.876 433.075 281.499 431.214C286.191 429.285 291.297 428.321 296.816 428.321C302.267 428.321 307.304 429.285 311.927 431.214C316.619 433.075 320.69 435.727 324.14 439.172C327.659 442.548 330.385 446.543 332.316 451.159C334.248 455.706 335.214 460.667 335.214 466.041C335.214 471.346 334.248 476.306 332.316 480.922C330.385 485.469 327.694 489.465 324.244 492.91C320.794 496.285 316.723 498.938 312.031 500.867C307.408 502.796 302.405 503.76 297.023 503.76ZM296.816 488.983C301.163 488.983 304.958 488.018 308.201 486.089C311.513 484.16 314.066 481.473 315.86 478.028C317.654 474.515 318.551 470.484 318.551 465.937C318.551 462.493 318.034 459.392 316.999 456.637C315.964 453.812 314.48 451.401 312.548 449.403C310.616 447.336 308.305 445.786 305.614 444.752C302.992 443.65 300.059 443.099 296.816 443.099C292.47 443.099 288.64 444.063 285.328 445.992C282.085 447.852 279.567 450.505 277.773 453.95C275.979 457.325 275.082 461.321 275.082 465.937C275.082 469.382 275.599 472.517 276.634 475.341C277.669 478.166 279.118 480.612 280.981 482.679C282.913 484.677 285.225 486.227 287.916 487.329C290.607 488.431 293.574 488.983 296.816 488.983Z" fill="white"/>
<path d="M208.171 502.52V429.561H224.421V502.52H208.171ZM220.695 502.52V488.259H256.816V502.52H220.695Z" fill="white"/>
<path d="M162.103 475.341L133.952 429.561H152.788L174.42 466.557H162.31L183.942 429.561H202.364L174.006 475.341H162.103ZM160.137 502.52V467.901H176.386V502.52H160.137Z" fill="white"/>
<path d="M77.3833 502.52V429.561H93.6326V502.52H77.3833ZM89.8031 502.52V488.466H129.857V502.52H89.8031ZM89.8031 472.035V458.497H126.235V472.035H89.8031ZM89.8031 443.512V429.561H129.34V443.512H89.8031Z" fill="white"/>
<path d="M40.6978 503.657C35.2469 503.657 30.1754 502.727 25.4835 500.867C20.8606 498.938 16.7896 496.251 13.2707 492.806C9.82071 489.361 7.12974 485.366 5.19777 480.818C3.26579 476.203 2.2998 471.242 2.2998 465.937C2.2998 460.632 3.26579 455.706 5.19777 451.159C7.12974 446.543 9.82071 442.547 13.2707 439.172C16.7206 435.796 20.7571 433.178 25.38 431.318C30.072 429.389 35.1434 428.424 40.5943 428.424C46.3902 428.424 51.5307 429.354 56.0156 431.214C60.5696 433.074 64.537 435.624 67.918 438.862L57.0506 449.816C55.1186 447.749 52.7727 446.13 50.0127 444.959C47.3217 443.788 44.1823 443.202 40.5943 443.202C37.4204 443.202 34.4879 443.753 31.7969 444.855C29.175 445.889 26.898 447.405 24.966 449.403C23.103 451.4 21.6196 453.812 20.5156 456.636C19.4806 459.461 18.9631 462.561 18.9631 465.937C18.9631 469.382 19.4806 472.517 20.5156 475.341C21.6196 478.166 23.103 480.577 24.966 482.575C26.898 484.573 29.175 486.123 31.7969 487.226C34.4879 488.328 37.4204 488.879 40.5943 488.879C44.3203 488.879 47.5632 488.294 50.3232 487.122C53.0832 485.951 55.4636 484.332 57.4646 482.265L68.4355 493.22C64.9165 496.458 60.8801 499.007 56.3261 500.867C51.8412 502.727 46.6317 503.657 40.6978 503.657Z" fill="white"/>
<path d="M386.329 566.775V559.068H396.831C398.771 559.068 400.289 558.499 401.386 557.362C402.483 556.225 403.031 554.836 403.031 553.193C403.031 552.056 402.778 551.046 402.272 550.161C401.766 549.277 401.049 548.582 400.121 548.077C399.235 547.571 398.138 547.319 396.831 547.319H386.329V539.802H396.008C397.653 539.802 398.982 539.401 399.994 538.601C401.006 537.759 401.513 536.496 401.513 534.811C401.513 533.169 401.006 531.948 399.994 531.147C398.982 530.305 397.653 529.884 396.008 529.884H386.329V522.177H397.906C400.774 522.177 403.2 522.704 405.182 523.757C407.206 524.81 408.746 526.22 409.8 527.989C410.855 529.758 411.382 531.716 411.382 533.864C411.382 536.601 410.496 538.917 408.725 540.812C406.953 542.707 404.338 544.013 400.88 544.729L401.133 541.381C404.887 542.097 407.776 543.55 409.8 545.739C411.867 547.929 412.9 550.624 412.9 553.825C412.9 556.268 412.289 558.478 411.065 560.458C409.884 562.395 408.155 563.932 405.878 565.069C403.642 566.206 400.943 566.775 397.78 566.775H386.329ZM378.737 566.775V522.177H388.543V566.775H378.737Z" fill="white"/>
<path d="M352.283 567.469C348.614 567.469 345.366 566.69 342.54 565.132C339.757 563.574 337.564 561.426 335.961 558.689C334.4 555.91 333.62 552.751 333.62 549.214V522.177H343.616V549.782C343.616 551.551 343.996 553.088 344.755 554.394C345.514 555.699 346.547 556.71 347.855 557.426C349.204 558.099 350.68 558.436 352.283 558.436C353.97 558.436 355.446 558.099 356.712 557.426C357.977 556.71 358.968 555.72 359.685 554.457C360.444 553.151 360.824 551.614 360.824 549.845V522.177H370.82V549.277C370.82 552.814 370.039 555.952 368.479 558.689C366.918 561.426 364.746 563.574 361.963 565.132C359.179 566.69 355.952 567.469 352.283 567.469Z" fill="white"/>
<path d="M300.398 566.775V522.177H310.33V566.775H300.398ZM308.053 566.775V558.057H330.132V566.775H308.053Z" fill="white"/>
<path d="M277.974 567.469C274.642 567.469 271.542 566.901 268.674 565.764C265.848 564.585 263.359 562.942 261.208 560.837C259.1 558.731 257.455 556.289 256.274 553.509C255.093 550.688 254.502 547.656 254.502 544.413C254.502 541.17 255.093 538.159 256.274 535.38C257.455 532.558 259.1 530.116 261.208 528.052C263.317 525.989 265.785 524.388 268.61 523.251C271.478 522.072 274.578 521.483 277.91 521.483C281.453 521.483 284.595 522.051 287.337 523.188C290.12 524.325 292.545 525.883 294.612 527.863L287.969 534.559C286.788 533.295 285.354 532.306 283.667 531.59C282.022 530.874 280.103 530.516 277.91 530.516C275.97 530.516 274.178 530.853 272.533 531.526C270.93 532.158 269.538 533.085 268.357 534.306C267.219 535.527 266.312 537.001 265.637 538.728C265.004 540.454 264.688 542.349 264.688 544.413C264.688 546.519 265.004 548.435 265.637 550.161C266.312 551.888 267.219 553.362 268.357 554.583C269.538 555.804 270.93 556.752 272.533 557.426C274.178 558.099 275.97 558.436 277.91 558.436C280.188 558.436 282.17 558.078 283.857 557.362C285.544 556.647 286.999 555.657 288.222 554.394L294.928 561.089C292.777 563.069 290.31 564.627 287.526 565.764C284.785 566.901 281.601 567.469 277.974 567.469Z" fill="white"/>
<path d="M221.261 567.469C217.592 567.469 214.428 566.88 211.771 565.701C209.156 564.479 206.752 562.648 204.559 560.205L211.012 553.825C212.446 555.467 214.028 556.752 215.757 557.678C217.528 558.563 219.574 559.005 221.894 559.005C224.002 559.005 225.626 558.626 226.765 557.868C227.946 557.11 228.536 556.057 228.536 554.709C228.536 553.488 228.157 552.498 227.398 551.74C226.638 550.982 225.626 550.33 224.361 549.782C223.138 549.235 221.767 548.708 220.249 548.203C218.772 547.698 217.296 547.129 215.82 546.497C214.344 545.824 212.973 545.002 211.708 544.034C210.485 543.023 209.494 541.781 208.735 540.307C207.975 538.791 207.596 536.896 207.596 534.622C207.596 531.884 208.249 529.526 209.557 527.547C210.907 525.568 212.762 524.073 215.124 523.062C217.486 522.009 220.206 521.483 223.285 521.483C226.406 521.483 229.253 522.03 231.826 523.125C234.441 524.22 236.592 525.715 238.279 527.61L231.826 533.99C230.476 532.6 229.106 531.569 227.714 530.895C226.364 530.221 224.825 529.884 223.096 529.884C221.366 529.884 219.996 530.221 218.983 530.895C217.971 531.526 217.465 532.453 217.465 533.674C217.465 534.811 217.845 535.738 218.604 536.454C219.363 537.127 220.354 537.717 221.577 538.222C222.842 538.728 224.213 539.233 225.689 539.738C227.208 540.244 228.705 540.833 230.181 541.507C231.657 542.181 233.007 543.044 234.23 544.097C235.495 545.108 236.508 546.413 237.267 548.014C238.026 549.572 238.406 551.509 238.406 553.825C238.406 558.078 236.887 561.426 233.851 563.869C230.814 566.269 226.617 567.469 221.261 567.469Z" fill="white"/>
<path d="M180.736 566.775V522.809H190.669V566.775H180.736ZM166.755 530.832V522.177H204.65V530.832H166.755Z" fill="white"/>
<path d="M138.461 548.392V541.065H147.887C149.87 541.065 151.388 540.56 152.442 539.549C153.539 538.538 154.087 537.17 154.087 535.443C154.087 533.843 153.56 532.516 152.506 531.463C151.451 530.41 149.933 529.884 147.951 529.884H138.461V522.177H149.089C152.042 522.177 154.635 522.746 156.871 523.883C159.106 524.978 160.856 526.515 162.122 528.494C163.387 530.474 164.02 532.748 164.02 535.317C164.02 537.928 163.387 540.223 162.122 542.202C160.856 544.139 159.085 545.655 156.808 546.75C154.53 547.845 151.852 548.392 148.773 548.392H138.461ZM130.869 566.775V522.177H140.802V566.775H130.869ZM155.163 566.775L141.245 547.571L150.355 545.108L166.93 566.775H155.163Z" fill="white"/>
<path d="M101.219 567.533C97.8451 567.533 94.7241 566.943 91.8561 565.764C89.0303 564.585 86.5419 562.942 84.3909 560.837C82.2399 558.731 80.5739 556.289 79.393 553.509C78.2121 550.688 77.6216 547.655 77.6216 544.413C77.6216 541.128 78.2121 538.096 79.393 535.317C80.5739 532.537 82.2188 530.116 84.3276 528.052C86.4364 525.947 88.9037 524.325 91.7296 523.188C94.5975 522.009 97.7186 521.419 101.093 521.419C104.425 521.419 107.503 522.009 110.329 523.188C113.197 524.325 115.686 525.947 117.795 528.052C119.945 530.116 121.611 532.558 122.792 535.38C123.973 538.159 124.564 541.191 124.564 544.476C124.564 547.719 123.973 550.751 122.792 553.572C121.611 556.352 119.967 558.794 117.858 560.9C115.749 562.963 113.261 564.585 110.393 565.764C107.567 566.943 104.509 567.533 101.219 567.533ZM101.093 558.499C103.75 558.499 106.069 557.91 108.052 556.731C110.076 555.552 111.637 553.909 112.733 551.804C113.83 549.656 114.378 547.192 114.378 544.413C114.378 542.307 114.062 540.412 113.429 538.728C112.797 537.001 111.89 535.527 110.709 534.306C109.528 533.042 108.115 532.095 106.47 531.463C104.867 530.789 103.075 530.453 101.093 530.453C98.4356 530.453 96.0948 531.042 94.0703 532.221C92.0881 533.358 90.5486 534.98 89.452 537.085C88.3554 539.149 87.8072 541.591 87.8072 544.413C87.8072 546.518 88.1235 548.435 88.7561 550.161C89.3888 551.888 90.2745 553.383 91.4132 554.646C92.5942 555.867 94.0071 556.815 95.6519 557.489C97.2968 558.163 99.1104 558.499 101.093 558.499Z" fill="white"/>
<path d="M47.7651 550.54V542.834H57.3813C58.6044 542.834 59.722 542.581 60.7343 542.076C61.7465 541.57 62.5479 540.833 63.1383 539.865C63.7288 538.896 64.024 537.717 64.024 536.327C64.024 534.98 63.7288 533.822 63.1383 532.853C62.5479 531.884 61.7465 531.147 60.7343 530.642C59.722 530.137 58.6044 529.884 57.3813 529.884H47.7651V522.177H58.8363C61.6622 522.177 64.2138 522.746 66.4913 523.883C68.7689 525.02 70.5614 526.662 71.8688 528.81C73.2185 530.916 73.8933 533.422 73.8933 536.327C73.8933 539.233 73.2185 541.76 71.8688 543.908C70.5614 546.013 68.7689 547.656 66.4913 548.835C64.2138 549.972 61.6622 550.54 58.8363 550.54H47.7651ZM40.1733 566.775V522.177H50.1059V566.775H40.1733Z" fill="white"/>
<path d="M16.7018 567.469C13.0325 567.469 9.86925 566.88 7.21215 565.701C4.59722 564.479 2.19317 562.648 0 560.205L6.45297 553.825C7.88697 555.467 9.46858 556.752 11.1978 557.678C12.9692 558.563 15.0148 559.005 17.3345 559.005C19.4433 559.005 21.0671 558.626 22.2058 557.868C23.3868 557.11 23.9772 556.057 23.9772 554.709C23.9772 553.488 23.5976 552.498 22.8385 551.74C22.0793 550.982 21.0671 550.33 19.8018 549.782C18.5787 549.235 17.2079 548.708 15.6896 548.203C14.2134 547.698 12.7372 547.129 11.2611 546.497C9.7849 545.824 8.41417 545.002 7.14888 544.034C5.92577 543.023 4.93463 541.781 4.17545 540.307C3.41628 538.791 3.03669 536.896 3.03669 534.622C3.03669 531.884 3.69043 529.526 4.99789 527.547C6.34753 525.568 8.20329 524.073 10.5652 523.062C12.927 522.009 15.6474 521.483 18.7263 521.483C21.8473 521.483 24.6942 522.03 27.267 523.125C29.8819 524.22 32.0329 525.715 33.7199 527.61L27.267 533.99C25.9173 532.6 24.5466 531.569 23.1548 530.895C21.8051 530.221 20.2657 529.884 18.5365 529.884C16.8073 529.884 15.4365 530.221 14.4243 530.895C13.4121 531.526 12.9059 532.453 12.9059 533.674C12.9059 534.811 13.2855 535.738 14.0447 536.454C14.8039 537.127 15.795 537.717 17.0181 538.222C18.2834 538.728 19.6542 539.233 21.1303 539.738C22.6487 540.244 24.1459 540.833 25.6221 541.507C27.0983 542.181 28.4479 543.044 29.671 544.097C30.9363 545.108 31.9485 546.413 32.7077 548.014C33.4669 549.572 33.8465 551.509 33.8465 553.825C33.8465 558.078 32.3281 561.426 29.2914 563.869C26.2547 566.269 22.0582 567.469 16.7018 567.469Z" fill="white"/>
</svg>
