<svg width="439" height="28" viewBox="0 0 439 28" fill="none" xmlns="http://www.w3.org/2000/svg">
<path fill-rule="evenodd" clip-rule="evenodd" d="M16.4556 0.700012V3.22494V4.36116H17.5919H20.9267H24.2615H25.3977V3.22494V0.700012H23.1252V2.08872H22.0629V0.700012H19.7904V2.08872H18.7281V0.700012H16.4556ZM0.979492 10.5541C0.979492 7.58837 3.38733 5.18418 6.35755 5.18418H22.4973C25.4675 5.18418 27.8753 7.58837 27.8753 10.5541V16.2525C29.1001 15.3274 30.0472 14.0546 30.5689 12.5803L33.5493 13.6317C32.5681 16.4048 30.51 18.6717 27.8753 19.9294V25.0635V27.2998H24.7144V25.0635V20.8892C24.1965 20.9644 23.667 21.0039 23.1283 21.005V27.2995H22.4973H19.9674H2.55997H0.979492V25.7214V10.5541ZM19.9674 20.555C15.3792 19.2042 12.0305 14.9663 12.0305 9.9474C12.0305 9.40209 12.0701 8.86545 12.1468 8.34034H6.35755C5.13307 8.34034 4.14044 9.33147 4.14044 10.5541V24.1433H10.4734V20.9816H13.6344V24.1433H19.9674V20.555ZM15.3549 8.34034C15.2478 8.8584 15.1914 9.39575 15.1914 9.9474C15.1914 14.3113 18.7344 17.8489 23.1049 17.8489C23.6563 17.8489 24.1946 17.7926 24.7144 17.6853V10.5541C24.7144 9.33147 23.7217 8.34034 22.4973 8.34034H15.3549ZM22.4517 12.6017C22.4517 13.3996 21.8039 14.0464 21.0048 14.0464C20.2057 14.0464 19.5579 13.3996 19.5579 12.6017C19.5579 11.8038 20.2057 11.157 21.0048 11.157C21.8039 11.157 22.4517 11.8038 22.4517 12.6017Z" fill="white"/>
<path d="M165.236 27.2613V1.53748H169.25L170.965 6.67495V27.2613H165.236ZM183.008 27.2613L167.827 7.8409L169.25 1.53748L184.431 20.9579L183.008 27.2613ZM183.008 27.2613L181.475 22.1238V1.53748H187.204V27.2613H183.008Z" fill="white"/>
<path d="M148.134 27.6985C146.188 27.6985 144.388 27.3584 142.733 26.6783C141.104 25.9982 139.668 25.0508 138.428 23.8363C137.187 22.6218 136.226 21.2129 135.545 19.6097C134.864 17.9822 134.523 16.2333 134.523 14.3629C134.523 12.4683 134.864 10.7193 135.545 9.11614C136.226 7.51296 137.175 6.11624 138.391 4.926C139.607 3.71147 141.031 2.77628 142.66 2.12043C144.315 1.44029 146.115 1.10022 148.061 1.10022C149.983 1.10022 151.759 1.44029 153.389 2.12043C155.043 2.77628 156.479 3.71147 157.695 4.926C158.936 6.11624 159.897 7.5251 160.578 9.15258C161.259 10.7558 161.599 12.5047 161.599 14.3994C161.599 16.2697 161.259 18.0187 160.578 19.6462C159.897 21.2493 158.948 22.6582 157.731 23.8727C156.515 25.063 155.08 25.9982 153.425 26.6783C151.795 27.3584 150.032 27.6985 148.134 27.6985ZM148.061 22.4882C149.594 22.4882 150.932 22.1481 152.075 21.468C153.243 20.7878 154.143 19.8405 154.776 18.6259C155.408 17.3871 155.724 15.9661 155.724 14.3629C155.724 13.1484 155.542 12.0553 155.177 11.0837C154.812 10.0878 154.289 9.2376 153.608 8.53317C152.927 7.80445 152.112 7.25791 151.163 6.89355C150.239 6.5049 149.205 6.31057 148.061 6.31057C146.529 6.31057 145.178 6.65064 144.011 7.33078C142.867 7.98663 141.979 8.92182 141.347 10.1364C140.714 11.3266 140.398 12.7355 140.398 14.3629C140.398 15.5775 140.58 16.6827 140.945 17.6786C141.31 18.6745 141.821 19.5368 142.478 20.2656C143.159 20.97 143.974 21.5165 144.923 21.9052C145.872 22.2938 146.918 22.4882 148.061 22.4882Z" fill="white"/>
<path d="M116.807 27.2613V1.53748H122.536V27.2613H116.807ZM121.222 27.2613V22.2331H133.958V27.2613H121.222Z" fill="white"/>
<path d="M100.564 17.6786L90.6387 1.53748H97.2801L104.907 14.5816H100.637L108.264 1.53748H114.759L104.761 17.6786H100.564ZM99.871 27.2613V15.0552H105.6V27.2613H99.871Z" fill="white"/>
<path d="M70.6938 27.2613V1.53748H76.423V27.2613H70.6938ZM75.0728 27.2613V22.306H89.1949V27.2613H75.0728ZM75.0728 16.5127V11.7396H87.9177V16.5127H75.0728ZM75.0728 6.45634V1.53748H89.0125V6.45634H75.0728Z" fill="white"/>
<path d="M57.7594 27.6621C55.8376 27.6621 54.0495 27.3341 52.3952 26.6783C50.7653 25.9982 49.33 25.0508 48.0893 23.8363C46.8729 22.6218 45.9241 21.2129 45.2429 19.6097C44.5618 17.9822 44.2212 16.2333 44.2212 14.3629C44.2212 12.4925 44.5618 10.7558 45.2429 9.15258C45.9241 7.5251 46.8729 6.11624 48.0893 4.926C49.3056 3.73576 50.7288 2.81271 52.3587 2.15687C54.013 1.47673 55.8011 1.13666 57.723 1.13666C59.7665 1.13666 61.5789 1.46458 63.1601 2.12043C64.7658 2.77628 66.1646 3.67503 67.3566 4.81669L63.5251 8.67891C62.8439 7.95019 62.0168 7.37936 61.0437 6.96642C60.0949 6.55348 58.988 6.34701 57.723 6.34701C56.6039 6.34701 55.57 6.54133 54.6212 6.92998C53.6968 7.29434 52.8939 7.82874 52.2128 8.53317C51.5559 9.2376 51.0329 10.0878 50.6437 11.0837C50.2787 12.0796 50.0963 13.1727 50.0963 14.3629C50.0963 15.5775 50.2787 16.6827 50.6437 17.6786C51.0329 18.6745 51.5559 19.5247 52.2128 20.2291C52.8939 20.9336 53.6968 21.4801 54.6212 21.8687C55.57 22.2574 56.6039 22.4517 57.723 22.4517C59.0366 22.4517 60.18 22.2453 61.1531 21.8323C62.1262 21.4194 62.9655 20.8485 63.671 20.1198L67.5391 23.982C66.2984 25.1237 64.8752 26.0225 63.2696 26.6783C61.6883 27.3341 59.8516 27.6621 57.7594 27.6621Z" fill="white"/>
<path d="M423.126 27.2627V22.8173H429.184C430.303 22.8173 431.179 22.4893 431.812 21.8334C432.444 21.1775 432.761 20.3759 432.761 19.4285C432.761 18.7726 432.615 18.1896 432.323 17.6795C432.031 17.1694 431.617 16.7685 431.082 16.477C430.571 16.1855 429.938 16.0398 429.184 16.0398H423.126V11.7036H428.71C429.659 11.7036 430.425 11.4729 431.009 11.0113C431.593 10.5255 431.885 9.79671 431.885 8.82503C431.885 7.87764 431.593 7.17317 431.009 6.71162C430.425 6.22578 429.659 5.98286 428.71 5.98286H423.126V1.53741H429.805C431.459 1.53741 432.858 1.84106 434.001 2.44837C435.169 3.05567 436.057 3.86945 436.665 4.88972C437.274 5.90999 437.578 7.03957 437.578 8.27846C437.578 9.85744 437.067 11.1935 436.045 12.2866C435.023 13.3798 433.515 14.1328 431.52 14.5458L431.666 12.6146C433.831 13.0276 435.498 13.8656 436.665 15.1288C437.857 16.392 438.453 17.9467 438.453 19.7929C438.453 21.2018 438.101 22.4772 437.395 23.6189C436.714 24.7363 435.716 25.623 434.403 26.2789C433.113 26.9348 431.556 27.2627 429.732 27.2627H423.126ZM418.747 27.2627V1.53741H424.404V27.2627H418.747Z" fill="white"/>
<path d="M403.487 27.6635C401.371 27.6635 399.497 27.2141 397.867 26.3153C396.262 25.4165 394.996 24.1776 394.072 22.5986C393.172 20.9954 392.722 19.1734 392.722 17.1329V1.53741H398.488V17.4609C398.488 18.4811 398.707 19.3678 399.145 20.1208C399.582 20.8739 400.178 21.4569 400.933 21.8699C401.711 22.2585 402.563 22.4529 403.487 22.4529C404.46 22.4529 405.312 22.2585 406.042 21.8699C406.772 21.4569 407.343 20.886 407.757 20.1573C408.195 19.4042 408.414 18.5176 408.414 17.4973V1.53741H414.18V17.1694C414.18 19.2099 413.73 21.0196 412.83 22.5986C411.929 24.1776 410.676 25.4165 409.071 26.3153C407.465 27.2141 405.604 27.6635 403.487 27.6635Z" fill="white"/>
<path d="M373.558 27.2627V1.53741H379.288V27.2627H373.558ZM377.974 27.2627V22.2342H390.71V27.2627H377.974Z" fill="white"/>
<path d="M360.623 27.6636C358.701 27.6636 356.913 27.3356 355.258 26.6798C353.628 25.9996 352.193 25.0522 350.952 23.8376C349.736 22.623 348.787 21.214 348.106 19.6108C347.425 17.9832 347.084 16.2342 347.084 14.3637C347.084 12.4932 347.425 10.7563 348.106 9.15303C348.787 7.52547 349.736 6.11653 350.952 4.92622C352.169 3.73591 353.592 2.81281 355.222 2.15692C356.876 1.47675 358.665 1.13666 360.587 1.13666C362.63 1.13666 364.443 1.4646 366.024 2.12048C367.63 2.77637 369.029 3.67518 370.221 4.8169L366.389 8.67934C365.708 7.95058 364.881 7.37972 363.907 6.96675C362.959 6.55379 361.852 6.3473 360.587 6.3473C359.467 6.3473 358.433 6.54164 357.485 6.93031C356.56 7.29469 355.757 7.82912 355.076 8.53359C354.419 9.23806 353.896 10.0883 353.507 11.0843C353.142 12.0802 352.959 13.1734 352.959 14.3637C352.959 15.5783 353.142 16.6836 353.507 17.6795C353.896 18.6755 354.419 19.5257 355.076 20.2302C355.757 20.9347 356.56 21.4813 357.485 21.8699C358.433 22.2586 359.467 22.4529 360.587 22.4529C361.9 22.4529 363.044 22.2465 364.017 21.8335C364.99 21.4205 365.829 20.8497 366.535 20.1209L370.403 23.9833C369.162 25.1251 367.739 26.0239 366.133 26.6798C364.552 27.3356 362.715 27.6636 360.623 27.6636Z" fill="white"/>
<path d="M327.909 27.6636C325.792 27.6636 323.967 27.3235 322.435 26.6433C320.926 25.9388 319.54 24.8821 318.274 23.4732L321.997 19.793C322.824 20.7403 323.736 21.4813 324.734 22.0157C325.756 22.5258 326.935 22.7809 328.274 22.7809C329.49 22.7809 330.427 22.5622 331.084 22.125C331.765 21.6877 332.105 21.0804 332.105 20.3031C332.105 19.5986 331.886 19.0278 331.448 18.5905C331.011 18.1532 330.427 17.7767 329.697 17.4609C328.991 17.1451 328.201 16.8415 327.325 16.55C326.473 16.2585 325.622 15.9305 324.77 15.5661C323.919 15.1775 323.128 14.7038 322.398 14.1451C321.693 13.562 321.121 12.8454 320.683 11.9952C320.245 11.1207 320.026 10.0275 320.026 8.71578C320.026 7.13679 320.403 5.77644 321.157 4.63471C321.936 3.49299 323.006 2.63062 324.369 2.04761C325.731 1.44031 327.3 1.13666 329.076 1.13666C330.877 1.13666 332.519 1.45245 334.003 2.08405C335.511 2.71564 336.752 3.57801 337.725 4.67115L334.003 8.3514C333.225 7.54976 332.434 6.9546 331.631 6.56593C330.852 6.17726 329.964 5.98292 328.967 5.98292C327.969 5.98292 327.179 6.17726 326.595 6.56593C326.011 6.93031 325.719 7.46474 325.719 8.16921C325.719 8.82509 325.938 9.35952 326.376 9.77248C326.814 10.1612 327.386 10.5012 328.091 10.7927C328.821 11.0843 329.612 11.3758 330.463 11.6673C331.339 11.9588 332.203 12.2989 333.054 12.6875C333.906 13.0762 334.684 13.5742 335.39 14.1815C336.12 14.7645 336.704 15.5176 337.141 16.4407C337.579 17.3395 337.798 18.4569 337.798 19.793C337.798 22.2465 336.922 24.1777 335.171 25.5866C333.419 26.9713 330.998 27.6636 327.909 27.6636Z" fill="white"/>
<path d="M304.533 27.2627V1.9018H310.262V27.2627H304.533ZM296.468 6.52943V1.53741H318.327V6.52943H296.468Z" fill="white"/>
<path d="M280.146 16.6592V12.4324H285.584C286.727 12.4324 287.603 12.1409 288.211 11.5579C288.844 10.9749 289.16 10.1854 289.16 9.18941C289.16 8.26631 288.856 7.50111 288.248 6.89381C287.64 6.28651 286.764 5.98286 285.62 5.98286H280.146V1.53741H286.277C287.98 1.53741 289.476 1.86536 290.766 2.52124C292.055 3.15284 293.065 4.0395 293.795 5.18122C294.525 6.32295 294.89 7.63472 294.89 9.11654C294.89 10.6226 294.525 11.9466 293.795 13.0883C293.065 14.2057 292.043 15.0802 290.729 15.7118C289.416 16.3434 287.871 16.6592 286.095 16.6592H280.146ZM275.767 27.2627V1.53741H281.497V27.2627H275.767ZM289.781 27.2627L281.752 16.1855L287.007 14.7644L296.568 27.2627H289.781Z" fill="white"/>
<path d="M258.664 27.7C256.718 27.7 254.918 27.3599 253.263 26.6798C251.633 25.9996 250.198 25.0522 248.957 23.8376C247.716 22.623 246.755 21.214 246.074 19.6108C245.393 17.9832 245.052 16.2342 245.052 14.3637C245.052 12.4689 245.393 10.7199 246.074 9.1166C246.755 7.51332 247.704 6.11653 248.921 4.92622C250.137 3.71162 251.56 2.77637 253.19 2.12049C254.845 1.44031 256.645 1.10022 258.591 1.10022C260.513 1.10022 262.289 1.44031 263.919 2.12049C265.574 2.77637 267.009 3.71162 268.226 4.92622C269.466 6.11653 270.427 7.52547 271.108 9.15304C271.79 10.7563 272.13 12.5053 272.13 14.4001C272.13 16.2706 271.79 18.0196 271.108 19.6472C270.427 21.2505 269.478 22.6594 268.262 23.874C267.046 25.0643 265.61 25.9996 263.956 26.6798C262.326 27.3599 260.562 27.7 258.664 27.7ZM258.591 22.4894C260.124 22.4894 261.462 22.1493 262.606 21.4691C263.773 20.7889 264.673 19.8415 265.306 18.6269C265.939 17.388 266.255 15.967 266.255 14.3637C266.255 13.1491 266.072 12.0559 265.707 11.0843C265.343 10.0883 264.819 9.23806 264.138 8.53359C263.457 7.80483 262.642 7.25826 261.693 6.89388C260.769 6.5052 259.735 6.31087 258.591 6.31087C257.059 6.31087 255.708 6.65095 254.541 7.33113C253.397 7.98702 252.509 8.92226 251.876 10.1369C251.244 11.3272 250.928 12.7361 250.928 14.3637C250.928 15.5783 251.11 16.6836 251.475 17.6795C251.84 18.6755 252.351 19.5379 253.008 20.2667C253.689 20.9711 254.504 21.5177 255.453 21.9064C256.402 22.295 257.448 22.4894 258.591 22.4894Z" fill="white"/>
<path d="M227.83 17.8981V13.4527H233.377C234.082 13.4527 234.727 13.3069 235.311 13.0154C235.895 12.7239 236.357 12.2988 236.698 11.7401C237.038 11.1814 237.209 10.5012 237.209 9.69955C237.209 8.9222 237.038 8.25417 236.698 7.69545C236.357 7.13673 235.895 6.71162 235.311 6.42012C234.727 6.12861 234.082 5.98286 233.377 5.98286H227.83V1.53741H234.216C235.846 1.53741 237.318 1.86536 238.632 2.52124C239.946 3.17713 240.98 4.12452 241.734 5.36341C242.512 6.57802 242.902 8.02339 242.902 9.69955C242.902 11.3757 242.512 12.8332 241.734 14.0721C240.98 15.2867 239.946 16.2341 238.632 16.9143C237.318 17.5702 235.846 17.8981 234.216 17.8981H227.83ZM223.451 27.2627V1.53741H229.18V27.2627H223.451Z" fill="white"/>
<path d="M209.911 27.6636C207.794 27.6636 205.97 27.3235 204.437 26.6433C202.929 25.9388 201.542 24.8821 200.277 23.4732L203.999 19.793C204.826 20.7403 205.739 21.4813 206.736 22.0157C207.758 22.5258 208.938 22.7809 210.276 22.7809C211.492 22.7809 212.429 22.5622 213.086 22.125C213.767 21.6877 214.108 21.0804 214.108 20.3031C214.108 19.5986 213.889 19.0278 213.451 18.5905C213.013 18.1532 212.429 17.7767 211.699 17.4609C210.994 17.1451 210.203 16.8415 209.327 16.55C208.476 16.2585 207.624 15.9305 206.773 15.5661C205.921 15.1775 205.13 14.7038 204.401 14.1451C203.695 13.562 203.123 12.8454 202.685 11.9952C202.247 11.1207 202.029 10.0275 202.029 8.71578C202.029 7.13679 202.406 5.77644 203.16 4.63471C203.938 3.49299 205.009 2.63062 206.371 2.04761C207.734 1.44031 209.303 1.13666 211.079 1.13666C212.879 1.13666 214.521 1.45245 216.005 2.08405C217.514 2.71564 218.755 3.57801 219.728 4.67115L216.005 8.3514C215.227 7.54976 214.436 6.9546 213.633 6.56593C212.855 6.17726 211.967 5.98292 210.969 5.98292C209.972 5.98292 209.181 6.17726 208.597 6.56593C208.013 6.93031 207.721 7.46474 207.721 8.16921C207.721 8.82509 207.94 9.35952 208.378 9.77248C208.816 10.1612 209.388 10.5012 210.094 10.7927C210.823 11.0843 211.614 11.3758 212.466 11.6673C213.341 11.9588 214.205 12.2989 215.057 12.6875C215.908 13.0762 216.687 13.5742 217.392 14.1815C218.122 14.7645 218.706 15.5176 219.144 16.4407C219.582 17.3395 219.801 18.4569 219.801 19.793C219.801 22.2465 218.925 24.1777 217.173 25.5866C215.422 26.9713 213.001 27.6636 209.911 27.6636Z" fill="white"/>
</svg>
